<svg xmlns="http://www.w3.org/2000/svg" viewBox="0 0 500 500"><defs><linearGradient id="g" x1="0" x2="1"><stop stop-color="#ffd9e5"/><stop offset="1" stop-color="#f5a9c4"/></linearGradient></defs><ellipse cx="250" cy="435" rx="125" ry="22" fill="#e9c6d2" opacity=".5"/><g><ellipse cx="205" cy="105" rx="45" ry="105" fill="url(#g)" transform="rotate(-18 205 105)"/><ellipse cx="295" cy="105" rx="45" ry="105" fill="url(#g)" transform="rotate(18 295 105)"/><ellipse cx="250" cy="275" rx="125" ry="145" fill="url(#g)"/><circle cx="205" cy="260" r="10" fill="#6b5b63"/><circle cx="295" cy="260" r="10" fill="#6b5b63"/><ellipse cx="250" cy="292" rx="15" ry="11" fill="#c97896"/><path d="M250 302c-10 22-38 20-47 0M250 302c10 22 38 20 47 0" fill="none" stroke="#8d6874" stroke-width="5" stroke-linecap="round"/><circle cx="180" cy="300" r="22" fill="#f6bfd0" opacity=".7"/><circle cx="320" cy="300" r="22" fill="#f6bfd0" opacity=".7"/><ellipse cx="185" cy="398" rx="43" ry="25" fill="#f2a8c0"/><ellipse cx="315" cy="398" rx="43" ry="25" fill="#f2a8c0"/></g></svg>
