<svg xmlns="http://www.w3.org/2000/svg" viewBox="0 0 500 500"><defs><linearGradient id="g" x1="0" x2="1"><stop stop-color="#c8ead0"/><stop offset="1" stop-color="#75bb8a"/></linearGradient></defs><ellipse cx="250" cy="435" rx="125" ry="22" fill="#a5cdb0" opacity=".55"/><circle cx="155" cy="190" r="55" fill="#8cc89b"/><circle cx="345" cy="190" r="55" fill="#8cc89b"/><ellipse cx="250" cy="175" rx="110" ry="105" fill="url(#g)"/><ellipse cx="250" cy="305" rx="125" ry="130" fill="url(#g)"/><ellipse cx="250" cy="220" rx="68" ry="58" fill="#bfe4bf"/><circle cx="208" cy="168" r="10" fill="#465b4e"/><circle cx="292" cy="168" r="10" fill="#465b4e"/><ellipse cx="250" cy="207" rx="15" ry="10" fill="#7a9e7f"/><path d="M230 225c13 10 27 10 40 0" fill="none" stroke="#55755c" stroke-width="5" stroke-linecap="round"/><ellipse cx="177" cy="400" rx="46" ry="27" fill="#75b783"/><ellipse cx="323" cy="400" rx="46" ry="27" fill="#75b783"/><path d="M165 310c-45 45-35 95 8 112M335 310c45 45 35 95-8 112" fill="none" stroke="#75b783" stroke-width="18" stroke-linecap="round"/></svg>
